File Name

Cop Out 2010 BRRip H264.mp4

File Size
Format : MPEG-4
Format profile : Base Media
Codec ID : isom
File size : 1.94 GiB
Duration : 1h 47mn
Overall bit rate : 2 579 Kbps

Video
ID : 1
Format : AVC
Format/Info : Advanced Video Codec
Format profile : High@L4.1
Format settings, CABAC : Yes
Format settings, ReFrames : 3 frames
Codec ID : avc1
Codec ID/Info : Advanced Video Coding
Duration : 1h 47mn
Bit rate mode : Variable
Bit rate : 1 999 Kbps
Maximum bit rate : 8 423 Kbps
Width : 1 280 pixels
Height : 536 pixels
Display aspect ratio : 2.35:1
Frame rate mode : Constant
Frame rate : 23.976 fps
Resolution : 24 bits
Colorimetry : 4:2:0
Scan type : Progressive
Bits/(Pixel*Frame) : 0.122
Stream size : 1.50 GiB (77%)

Audio #1
ID : 2
Format : AAC
Format/Info : Advanced Audio Codec
Format version : Version 4
Format profile : LC
Format settings, SBR : No
Codec ID : 40
Duration : 1h 47mn
Bit rate mode : Variable
Bit rate : 128 Kbps
Maximum bit rate : 138 Kbps
Channel(s) : 2 channels
Channel positions : L R
Sampling rate : 48.0 KHz
Resolution : 16 bits
Stream size : 98.4 MiB (5%)

Audio #2
ID : 3
Format : AAC
Format/Info : Advanced Audio Codec
Format version : Version 4
Format profile : LC
Format settings, SBR : No
Codec ID : 40
Duration : 1h 47mn
Bit rate mode : Variable
Bit rate : 448 Kbps
Maximum bit rate : 464 Kbps
Channel(s) : 6 channels
Channel positions : Front: L C R, Rear: L R, LFE
Sampling rate : 48.0 KHz
Resolution : 16 bits
Stream size : 344 MiB (17%)
Text
ID : 4
Format : Timed text
Codec ID : tx3g
Duration : 1h 47mn
Bit rate mode : Variable
Bit rate : 81 bps
Stream size : 64.0 KiB (0%)

English SRT : External

Language : English

 
http://www.imdb.com/title/tt1385867/

Release Date: 26 February 2010 (USA) 

Genre: Action | Comedy | Crime 

Plot: A comedy about a veteran NYPD cop whose rare baseball card is stolen. Since it's his only hope to pay for his daughter's upcoming wedding, he recruits his partner to track down the thief, a memorabilia-obsessed gangster.

Cast: 
Bruce Willis ... Jimmy Monroe
Tracy Morgan ... Paul Hodges
Juan Carlos Hernández ... Raul
Cory Fernandez ... Juan
Ana de la Reguera ... Gabriela
Jason Hurt ... Youth 1
Jeff Lima ... Youth 2
Sean Cullen ... Captain Romans
Kevin Pollak ... Hunsaker
Adam Brody ... Barry Mangold
Guillermo Díaz ... Poh Boy
Alberto Bonilla ... Julio
Robinson Aponte ... Banger 1
Jeremy Dash ... Banger 2
Mando Alvarado ... Mexican Man 1



Screenshots
 
http://postimg.com/image/19000/18148.jpg
 
http://postimg.com/image/19000/18149.jpg